<?xml version="1.0" encoding="UTF-8" standalone="no"?>
<svg width="211px" height="220px" viewBox="0 0 211 220" version="1.1" xmlns="http://www.w3.org/2000/svg" xmlns:xlink="http://www.w3.org/1999/xlink">
    <!-- Generator: Sketch 3.6.1 (26313) - http://www.bohemiancoding.com/sketch -->
    <title>ink-blot-hero</title>
    <desc>Created with Sketch.</desc>
    <defs></defs>
    <g id="1.0_Homepage" stroke="none" stroke-width="1" fill="none" fill-rule="evenodd">
        <g id="1.0-Homepage_Desktop_Rev1.01" transform="translate(-407.000000, -3297.000000)">
            <g id="ink-blot-hero" transform="translate(407.000000, 3297.000000)">
                <path d="M84.2941857,198.17784 C83.3245609,197.202432 81.687209,197.419585 81.0159303,198.619266 C78.9594732,202.285946 78.3059532,207.490496 72.0904093,206.732241 C71.5789588,206.668163 71.0533014,206.408291 70.7443,205.995345 C68.1657373,202.581417 71.1243362,197.910849 69.4017426,194.169411 C69.245466,193.827663 68.9790856,193.510833 68.6629808,193.311479 C65.8038306,191.524418 61.5310881,193.927339 58.9667323,190.961956 C58.3238675,190.217941 57.2903113,189.94027 56.4165834,190.388815 C52.7831541,192.247074 49.1532764,194.108893 45.4843297,195.984952 C44.5431187,196.469096 43.3817,196.145147 42.7850077,195.269415 C40.3165489,191.649014 40.8457581,188.462918 43.530873,185.052549 C44.1595309,184.255135 44.0565304,183.094613 43.3781482,182.336358 L38.5726449,176.971613 C38.2991609,176.665463 38.0967118,176.270316 38.0469874,175.86093 C37.7237791,173.251535 38.9136118,172.055414 40.0217545,170.891332 C40.8102407,170.058319 40.7605163,168.737602 39.9223058,167.954428 L36.2959799,164.576098 C36.0509099,164.344706 35.7525638,164.145353 35.4293555,164.067035 C30.5705761,162.856675 26.6707662,172.269007 20.6114989,166.395199 C18.3419374,160.596149 24.1774452,159.286111 26.3617649,156.359887 C26.6103867,156.021698 26.7062836,155.590952 26.7062836,155.170886 L26.7062836,136.435218 C23.3037173,135.392172 20.242118,134.559159 20.1994971,139.151409 C20.1710832,142.134592 17.5960722,142.843009 16.3742738,144.715507 C15.2341655,146.46341 13.4511923,146.392213 11.71084,146.292536 C10.5707317,146.228458 9.43772683,146.096742 8.17685936,145.954347 C7.13264798,145.833311 6.33350663,144.9469 6.33350663,143.893174 L6.33350663,138.418073 C6.33350663,137.517423 6.93375058,136.762727 7.78261629,136.467257 C13.0356388,134.641037 16.7472064,130.831961 20.0822897,125.833884 C20.4623258,125.267863 20.5333606,124.534527 20.2811871,123.900868 C17.16276,116.072683 14.1864024,108.162622 19.901151,99.6011016 C21.9647116,96.5075627 19.070044,93.2324698 17.0704147,91.1784169 C16.5802747,90.6800332 16.317446,89.950257 16.5269986,89.2809989 C17.6919691,85.5288815 21.7374003,83.9055745 19.6987019,80.2566938 C19.4749423,79.8544269 19.0735957,79.5340374 18.647387,79.363163 C15.4650285,78.1136438 12.2862218,77.8252932 9.13227725,80.8084757 C8.41127415,81.4919734 7.26406234,81.5168926 6.48623142,80.8974728 C4.62156825,79.4130013 3.1191825,77.2841909 1.21900194,75.6680037 C-0.176831634,74.4825625 0.469584931,72.232716 2.28452375,72.0120032 C7.88206499,71.3391852 13.3233297,71.0508346 18.2957648,68.1281701 C20.4161532,66.8822108 22.1955746,68.1744486 23.7903056,69.7301177 C24.997897,70.9119991 27.0756645,70.1644236 27.260355,68.4805986 C27.505425,66.1915934 26.5180414,63.5288004 28.3898081,61.4071097 C29.5973995,59.744644 32.9928623,62.2365626 33.9731424,59.0041882 C32.4032736,55.5368615 26.660111,54.2624232 27.3527002,48.8051215 C27.4343902,48.1643425 27.8712541,47.5734018 28.4643946,47.3135303 C31.7959261,45.8397384 35.5217007,46.8187064 38.8141631,46.9468622 C40.682378,47.0216198 41.6555546,44.7326146 40.3343076,43.404778 L34.427765,37.4882513 C33.5753476,36.6303194 33.6215202,35.1778868 34.5662829,34.4196316 C39.1586819,30.7387119 43.775943,33.7859723 47.7219255,31.6002037 C50.0696252,30.5856369 46.8304389,26.8691183 49.9914869,25.8972701 C55.4718208,31.2014968 60.7141881,22.3551858 65.9032793,24.9289817 C66.9830081,25.4629643 68.3539794,25.1888532 68.8263608,24.0817294 C71.1136809,18.7241045 67.4269755,11.7787714 74.5517646,8.58911567 C74.9992838,8.38976218 75.5498034,8.31500462 76.004426,8.49655869 C78.1283662,9.343811 79.3395093,12.1845982 81.3462421,13.7972255 C81.5522429,13.9609801 81.797313,14.0926958 82.0459347,14.178133 C89.0393095,16.6629318 94.6865751,11.5651784 100.028391,10.9030401 C100.237944,10.8781209 100.461703,10.8781209 100.671256,10.8994802 C104.777067,11.3515854 106.513867,14.1354144 108.726601,16.2784644 C109.809881,17.3250702 111.617717,16.8943243 112.118512,15.4703708 L113.148516,12.5512662 C113.48238,11.6043371 114.455556,10.9706778 115.432285,11.1913906 C123.132456,12.9214941 129.443897,20.8671545 139.818527,17.1363964 C140.031632,17.0580789 140.241184,16.9512824 140.425875,16.8195667 C144.968549,13.597872 149.294568,8.15836974 148.697876,0.25898787 C151.208955,0.415622752 152.363271,0.486820425 153.517586,0.565137866 C157.644707,4.48812967 153.965105,6.67745813 151.617405,9.16225694 C152.732652,10.4188959 153.847898,11.6755348 154.959592,12.9321737 C151.212507,14.57684 152.221201,18.983976 149.962295,21.6325294 C149.038843,22.7111742 149.37981,24.3487207 150.679746,24.9147422 C153.091377,25.9684678 154.867247,27.1432294 155.534974,29.389516 C155.879493,30.550038 157.023153,31.2620148 158.159709,30.8455084 C162.780522,29.143884 167.042609,27.1076305 169.713518,22.9639259 C170.061588,22.4228236 170.619211,22.0454759 171.258524,21.9885178 C174.387607,21.7001672 177.331998,21.3548585 180.446874,21.9493591 C181.920846,22.2305899 182.606331,24.0390108 181.714845,25.2458114 C179.381352,28.3963084 176.33396,29.6280282 172.551357,28.837734 C171.759319,28.6739793 170.914005,28.9160514 170.423865,29.5568305 C168.818479,31.6358026 169.24824,34.6652636 167.536301,36.4630048 C166.786884,37.2461792 166.776229,38.4707792 167.507887,39.2681932 C171.013454,43.0772687 174.124778,47.6623989 182.158812,45.9465349 C183.696715,45.6154657 184.989549,47.0109401 184.58465,48.5345704 C182.826539,55.1630738 190.420158,59.5951289 184.932721,64.9064754 C184.272097,65.5436945 184.179752,66.6116597 184.659237,67.3948341 C187.333697,71.7628113 194.145933,71.1754305 197.097428,78.4233537 C197.20398,78.690345 197.260808,78.9929351 197.260808,79.2812856 L197.260808,89.3415169 C197.260808,90.4201617 198.130984,91.2033361 199.200058,91.3030128 C204.410459,91.7907169 203.707215,99.9286109 208.459442,100.281039 C209.954725,100.394956 210.913694,101.900787 210.260174,103.253542 C206.189881,111.637068 202.840591,118.838713 197.420636,124.192778 C198.699262,131.390863 204.357183,126.780813 207.408127,129.436487 C207.773957,129.753316 207.937337,130.2517 207.972854,130.732284 L208.21082,134.22809 C204.843772,136.766287 204.797599,132.238115 203.376903,132.195397 C198.855539,131.130991 197.44905,134.655276 195.215006,136.331981 C194.749728,136.68085 194.34483,137.147195 194.259588,137.723896 C193.172756,145.114214 200.269131,150.945304 196.685426,159.560222 C196.479425,160.051486 196.092286,160.503592 195.591491,160.667346 C191.617094,161.959584 183.870751,158.015233 180.830462,165.088722 C180.514357,165.829178 180.741668,166.694229 181.309947,167.263811 C181.846259,167.801353 182.393227,168.349575 182.972161,168.929836 C182.517538,169.72369 182.165916,170.64926 181.555017,171.343437 C180.382943,172.678394 179.292559,174.422737 177.775966,175.052836 C168.225339,179.022106 163.885113,187.127962 160.422167,196.084629 C159.750889,197.811172 158.870057,199.455839 157.754811,201.581089 C157.03736,202.944525 155.133627,203.08692 154.235037,201.837401 L150.537677,196.686249 C149.962295,195.881715 148.903877,195.604045 148.01239,195.992072 C140.266046,199.366842 133.180326,202.371383 126.211814,205.635797 C124.819532,206.287255 123.97777,208.124155 123.26387,208.964288 C122.748868,211.534524 123.821493,212.912199 125.128533,214.215116 C125.917019,214.998291 125.934778,216.272729 125.174706,217.084383 L123.18218,219.220313 C122.422108,220.035526 121.171896,220.056885 120.32303,219.334229 C113.681277,213.688254 105.700519,211.303132 96.9206192,210.220927 C96.4695483,210.163969 96.0539948,209.968175 95.7343382,209.647786 C92.0511845,205.956186 88.1939956,202.086593 84.2941857,198.17784 Z" id="Fill-1" fill="#1C2328"></path>
                <path d="M51.3167925,120.492308 C51.3167925,125.429864 50.8390566,127.1819 49.0077358,127.1819 C47.6541509,127.1819 46.4598113,126.704072 45.3450943,126.704072 C43.7526415,126.704072 42.6379245,127.819005 42.6379245,129.332127 C42.6379245,130.845249 43.9915094,132.278733 45.3450943,132.278733 C48.1318868,132.278733 50.4409434,131.402715 53.7850943,131.402715 C57.2088679,131.402715 59.2790566,132.278733 61.9862264,132.278733 C63.6583019,132.278733 65.41,131.163801 65.41,129.332127 C65.41,127.819005 64.295283,126.704072 62.7028302,126.704072 C61.5084906,126.624434 60.3937736,127.1819 59.5179245,127.1819 C58.084717,127.1819 57.4477358,125.828054 57.4477358,123.916742 L57.4477358,94.2914027 C57.4477358,92.6986425 57.0496226,90.8669683 55.2183019,90.8669683 C53.7054717,90.8669683 52.6703774,91.7429864 50.6798113,91.7429864 C48.7688679,91.7429864 47.5745283,90.8669683 45.424717,90.8669683 C43.9118868,90.8669683 42.6379245,91.9819005 42.6379245,93.8135747 C42.6379245,95.3266968 43.7526415,96.441629 45.3450943,96.441629 C46.4598113,96.441629 47.6541509,95.9638009 49.0077358,95.9638009 C50.759434,95.9638009 51.3167925,97.078733 51.3167925,102.653394 L51.3167925,120.492308 Z M52.9888679,77.6470588 C50.520566,77.6470588 48.4503774,79.638009 48.4503774,82.1864253 C48.4503774,84.7348416 50.520566,86.8054299 52.9888679,86.8054299 C55.5367925,86.8054299 57.6069811,84.7348416 57.6069811,82.1864253 C57.6069811,79.638009 55.5367925,77.6470588 52.9888679,77.6470588 L52.9888679,77.6470588 Z M84.0416976,120.41267 C84.0416976,125.429864 83.7232071,127.1819 81.732641,127.1819 C80.3790561,127.1819 79.1847165,126.704072 78.0699995,126.704072 C76.4775467,126.704072 75.3628297,127.819005 75.3628297,129.332127 C75.3628297,131.163801 76.636792,132.278733 78.7866033,132.278733 C81.6530184,132.278733 83.4843391,131.402715 87.3062259,131.402715 C90.8892448,131.402715 92.8001882,132.278733 95.4277354,132.278733 C97.5775467,132.278733 98.8515089,131.163801 98.8515089,129.332127 C98.8515089,127.819005 97.736792,126.704072 96.1443391,126.704072 C95.0296221,126.704072 93.8352825,127.1819 92.4816976,127.1819 C90.6503769,127.1819 90.172641,125.270588 90.172641,120.41267 L90.172641,111.015385 C90.172641,103.051584 91.287358,101.299548 92.2428297,99.7864253 C94.2333957,96.680543 98.3737731,95.1674208 101.956792,95.1674208 C105.300943,95.1674208 109.043207,96.441629 110.63566,99.5475113 C111.909622,102.01629 111.909622,103.60905 111.909622,108.705882 L111.909622,120.492308 C111.909622,125.509502 111.591132,127.261538 109.600566,127.261538 C108.246981,127.261538 107.052641,126.78371 105.937924,126.78371 C104.345471,126.78371 103.230754,127.898643 103.230754,129.411765 C103.230754,131.243439 104.504716,132.278733 106.654528,132.278733 C109.520943,132.278733 111.352264,131.402715 115.17415,131.402715 C118.757169,131.402715 120.668113,132.278733 123.29566,132.278733 C125.445471,132.278733 126.719433,131.243439 126.719433,129.411765 C126.719433,127.898643 125.604716,126.78371 124.012264,126.78371 C122.897547,126.78371 121.703207,127.261538 120.349622,127.261538 C118.518301,127.261538 118.040566,125.350226 118.040566,120.492308 L118.040566,105.679638 C118.040566,101.299548 117.88132,97.238009 114.377924,94.0524887 C111.193018,91.1855204 107.052641,89.7520362 102.832641,89.7520362 C97.8960372,89.7520362 92.5613203,91.5040724 89.5356599,95.6452489 L89.3764146,95.6452489 C89.3764146,92.6190045 89.296792,90.8669683 87.6247165,90.8669683 C85.6341504,90.8669683 84.9175467,91.7429864 82.6084901,91.7429864 C80.5383014,91.7429864 79.9809429,90.8669683 78.3088674,90.8669683 C76.9552825,90.8669683 75.3628297,92.3800905 75.3628297,93.8135747 C75.3628297,95.3266968 76.4775467,96.441629 78.0699995,96.441629 C79.1847165,96.441629 80.3790561,95.9638009 81.732641,95.9638009 C83.5639618,95.9638009 84.0416976,97.238009 84.0416976,102.733032 L84.0416976,120.41267 Z M171.467358,98.5122172 C173.856037,96.361991 174.572641,95.9638009 176.244716,95.9638009 C177.359433,95.9638009 178.394527,96.441629 179.349999,96.441629 C180.703584,96.441629 181.659056,95.3266968 181.659056,93.8135747 C181.659056,91.9819005 180.544339,90.8669683 178.792641,90.8669683 C176.244716,90.8669683 173.537546,91.7429864 170.750754,91.7429864 C167.00849,91.7429864 164.699433,90.8669683 161.514527,90.8669683 C158.329622,90.8669683 157.214905,92.3004525 157.214905,93.8135747 C157.214905,95.1674208 158.170376,96.441629 159.842452,96.441629 C161.514527,96.441629 162.708867,95.8045249 163.903207,95.8045249 C164.61981,95.8045249 165.177169,95.8841629 165.177169,96.441629 C165.177169,97.078733 164.699433,97.5565611 163.664339,98.5122172 L150.208112,111.015385 L150.208112,80.3547511 C150.208112,77.4877828 149.969244,76.2135747 147.978678,76.2135747 C146.465848,76.2135747 145.749244,77.0895928 143.679056,77.0895928 C142.086603,77.0895928 140.812641,76.2135747 138.423961,76.2135747 C137.149999,76.2135747 135.398301,77.3285068 135.398301,79.160181 C135.398301,80.6733032 136.513018,81.7882353 138.105471,81.7882353 C139.220188,81.7882353 140.414527,81.3104072 141.768112,81.3104072 C142.882829,81.3104072 144.077169,81.4696833 144.077169,88 L144.077169,120.492308 C144.077169,125.509502 143.679056,127.1819 141.768112,127.1819 C140.414527,127.1819 139.220188,126.704072 138.105471,126.704072 C136.513018,126.704072 135.398301,127.819005 135.398301,129.332127 C135.398301,131.163801 137.149999,132.278733 138.822074,132.278733 C141.608867,132.278733 143.599433,131.402715 147.262074,131.402715 C150.765471,131.402715 152.437546,132.278733 155.144716,132.278733 C156.896414,132.278733 158.329622,131.004525 158.329622,129.172851 C158.329622,127.58009 157.294527,126.704072 155.702074,126.704072 C154.587358,126.704072 153.552263,127.1819 152.437546,127.1819 C150.924716,127.1819 150.208112,124.633484 150.208112,117.704977 L157.692641,111.015385 L167.725093,124.39457 C168.362074,125.270588 168.999056,125.98733 168.999056,126.624434 C168.999056,127.022624 168.680565,127.1819 168.362074,127.1819 C167.406603,127.1819 166.291886,126.704072 165.017924,126.704072 C163.425471,126.704072 162.310754,127.819005 162.310754,129.332127 C162.310754,131.243439 163.903207,132.278733 165.495659,132.278733 C168.202829,132.278733 169.636037,131.402715 173.457924,131.402715 C177.598301,131.402715 178.792641,132.278733 181.659056,132.278733 C183.331131,132.278733 185.082829,131.163801 185.082829,129.332127 C185.082829,127.819005 183.968112,126.704072 182.69415,126.704072 C181.738678,126.704072 180.783207,127.1819 179.588867,127.1819 C178.394527,127.1819 176.881697,125.748416 173.298678,121.129412 L162.310754,106.953846 L171.467358,98.5122172 Z" id="ink" fill="#FFFFFB"></path>
                <path d="M72.4466509,67.2642534 C72.4466509,69.7131222 72.5959434,70.4298643 73.0438208,71.2959276 C73.730566,72.5800905 75.1637736,73.0877828 76.5671226,73.0877828 C80.7771698,73.0877828 81.3444811,70.1013575 81.3444811,66.6371041 C81.3444811,65.920362 81.0757547,65.2036199 80.239717,65.2036199 C79.3738208,65.2036199 79.0453774,65.7113122 79.0453774,67.0850679 L79.0453774,68.040724 C79.0453774,69.4742081 78.716934,70.9972851 76.9254245,70.9972851 C75.3429245,70.9972851 74.7457547,70.1312217 74.7457547,67.4434389 L74.7457547,60.2162896 C74.7457547,59.678733 74.8353302,59.6190045 75.5220755,59.6190045 L78.1496226,59.6190045 C79.4932547,59.6190045 79.7619811,59.1113122 79.7619811,58.5438914 C79.7619811,57.8271493 79.4633962,57.438914 78.2391981,57.438914 L75.2533491,57.438914 C74.8353302,57.438914 74.7457547,57.4090498 74.7457547,56.961086 L74.7457547,54.0045249 C74.7457547,53.2280543 74.5964623,52.5113122 73.6111321,52.5113122 C72.5959434,52.5113122 72.4466509,53.19819 72.4466509,54.0343891 L72.4466509,56.4832579 C72.4466509,57.319457 72.386934,57.438914 71.8494811,57.438914 L70.804434,57.438914 C70.1774057,57.438914 69.6698113,58.0063348 69.6698113,58.5140271 C69.6698113,59.4099548 70.2072642,59.6190045 71.4016038,59.6190045 C72.327217,59.6190045 72.4466509,59.7683258 72.4466509,60.6642534 L72.4466509,67.2642534 Z M100.931651,62.7547511 C100.931651,61.1420814 100.633066,59.6488688 99.3491506,58.5438914 C98.214528,57.558371 96.632028,57.0506787 95.1391035,57.0506787 C93.1983016,57.0506787 91.884528,57.6778281 90.5707544,58.9918552 L90.5707544,53.5266968 C90.5707544,52.4515837 90.4811789,51.9737557 89.7347167,51.9737557 C89.1674054,51.9737557 88.8986789,52.3022624 88.1223582,52.3022624 C87.5251884,52.3022624 87.0474525,51.9737557 86.1516978,51.9737557 C85.673962,51.9737557 85.0170752,52.3918552 85.0170752,53.078733 C85.0170752,53.6461538 85.435094,54.0642534 86.0322638,54.0642534 C86.4502827,54.0642534 86.8981601,53.8850679 87.4057544,53.8850679 C87.8237733,53.8850679 88.2716506,53.9447964 88.2716506,56.3936652 L88.2716506,68.5782805 C88.2716506,70.4597285 88.1223582,71.0868778 87.4057544,71.0868778 C86.8981601,71.0868778 86.4502827,70.9076923 86.0322638,70.9076923 C85.435094,70.9076923 85.0170752,71.3257919 85.0170752,71.8932127 C85.0170752,72.5800905 85.673962,72.99819 86.3009903,72.99819 C87.3460374,72.99819 88.0924997,72.6696833 89.4659903,72.6696833 C90.8693393,72.6696833 91.5262261,72.99819 92.5414148,72.99819 C93.2878771,72.99819 93.8253299,72.5800905 93.8253299,71.8932127 C93.8253299,71.3257919 93.407311,70.9076923 92.8101412,70.9076923 C92.3921223,70.9076923 91.944245,71.0868778 91.4366506,71.0868778 C90.7797638,71.0868778 90.5707544,70.6090498 90.5707544,68.5782805 L90.5707544,64.5764706 C90.5707544,63.2624434 90.5707544,61.799095 91.3470752,60.6642534 C92.1233959,59.559276 93.6461789,59.081448 94.9599525,59.081448 C96.512594,59.081448 97.9159431,59.8280543 98.3638205,61.4108597 C98.6922638,62.5457014 98.6325469,64.3972851 98.6325469,65.5918552 L98.6325469,68.5782805 C98.6325469,70.4597285 98.4832544,71.0868778 97.7666506,71.0868778 C97.2590563,71.0868778 96.8111789,70.9076923 96.3931601,70.9076923 C95.7959903,70.9076923 95.3779714,71.3257919 95.3779714,71.8932127 C95.3779714,72.5800905 96.0348582,72.99819 96.6618865,72.99819 C97.7069337,72.99819 98.4533959,72.6696833 99.8268865,72.6696833 C101.230236,72.6696833 101.887122,72.99819 102.902311,72.99819 C103.648773,72.99819 104.186226,72.5800905 104.186226,71.8932127 C104.186226,71.3257919 103.768207,70.9076923 103.171037,70.9076923 C102.753019,70.9076923 102.305141,71.0868778 101.797547,71.0868778 C101.14066,71.0868778 100.931651,70.6090498 100.931651,68.5782805 L100.931651,62.7547511 Z M120.668113,65.561991 C122.10132,65.561991 122.10132,65.4425339 122.10132,63.9493213 C122.10132,59.9475113 119.354339,57.0506787 115.323443,57.0506787 C113.173631,57.0506787 111.173113,57.9764706 109.829481,59.678733 C108.575424,61.2914027 108.06783,63.4714932 108.06783,65.5022624 C108.06783,69.9221719 110.486367,73.4162896 115.17415,73.4162896 C116.876084,73.4162896 118.787028,72.878733 120.041084,71.6841629 C120.906981,70.8778281 121.802735,69.4742081 121.802735,68.2497738 C121.802735,67.5628959 121.265282,67.1149321 120.608396,67.1149321 C119.802216,67.1149321 119.652924,67.80181 119.473773,68.4289593 C118.906462,70.3701357 117.383679,71.3855204 115.353301,71.3855204 C112.068867,71.3855204 110.42665,68.6081448 110.546084,65.561991 L120.668113,65.561991 Z M110.814811,63.4117647 C111.02382,60.9031674 112.845188,59.081448 115.413018,59.081448 C118.070424,59.081448 119.473773,60.9628959 119.623065,63.4117647 L110.814811,63.4117647 Z" id="the" fill="#FFFFFB"></path>
                <path d="M81.9715094,158.628959 C85.4649528,158.628959 86.4801415,161.764706 86.4801415,164.691403 C86.4801415,167.707692 85.2858019,170.933032 81.822217,170.933032 C80.299434,170.933032 78.8363679,170.156561 78.2391981,168.693213 C77.6718868,167.319457 77.6121698,165.79638 77.6121698,164.273303 C77.6121698,163.048869 77.7913208,161.525792 78.537783,160.450679 C79.3141038,159.345701 80.6278774,158.628959 81.9715094,158.628959 L81.9715094,158.628959 Z M75.313066,171.112217 C75.313066,171.978281 75.2832075,172.635294 76.3282547,172.635294 C76.9851415,172.635294 77.4031604,172.247059 77.4031604,171.590045 C77.4031604,171.261538 77.3135849,170.933032 77.2538679,170.664253 L77.3135849,170.604525 C78.2391981,172.366516 79.9709906,172.963801 81.881934,172.963801 C86.7488679,172.963801 88.9583962,168.81267 88.9583962,164.39276 C88.9583962,160.062443 86.7488679,156.59819 82.1506604,156.59819 C80.239717,156.59819 78.8662264,157.285068 77.6718868,158.808145 L77.6121698,158.808145 L77.6121698,152.357466 C77.6121698,151.760181 77.5524528,151.521267 77.0448585,151.521267 C76.2386792,151.521267 75.8803774,151.849774 75.1339151,151.849774 C74.3575943,151.849774 74.0590094,151.521267 73.2229717,151.521267 C72.5362264,151.521267 72.0584906,152.058824 72.0584906,152.626244 C72.0584906,153.193665 72.4765094,153.611765 73.0736792,153.611765 C73.4916981,153.611765 73.9395755,153.432579 74.4471698,153.432579 C75.4623585,153.432579 75.313066,155.284163 75.313066,156.000905 L75.313066,171.112217 Z M96.6021695,168.125792 C96.6021695,169.828054 96.4528771,170.634389 95.7362733,170.634389 C95.2286789,170.634389 94.7808016,170.455204 94.3627827,170.455204 C93.7656129,170.455204 93.347594,170.873303 93.347594,171.440724 C93.347594,172.127602 94.0044808,172.545701 94.6315091,172.545701 C95.6765563,172.545701 96.4230186,172.217195 97.7965091,172.217195 C99.2595752,172.217195 99.856745,172.545701 100.871934,172.545701 C101.498962,172.545701 102.155849,172.127602 102.155849,171.440724 C102.155849,170.873303 101.73783,170.455204 101.14066,170.455204 C100.722641,170.455204 100.274764,170.634389 99.7671695,170.634389 C99.2595752,170.634389 98.9012733,170.305882 98.9012733,168.125792 L98.9012733,153.074208 C98.9012733,151.999095 98.8116978,151.521267 98.0652355,151.521267 C97.4979242,151.521267 97.2291978,151.849774 96.4528771,151.849774 C95.8557072,151.849774 95.3779714,151.521267 94.4523582,151.521267 C93.7357544,151.521267 93.0788676,151.939367 93.0788676,152.626244 C93.0788676,153.193665 93.4968865,153.611765 94.0940563,153.611765 C94.7808016,153.611765 95.2286789,153.432579 95.7362733,153.432579 C96.1542921,153.432579 96.6021695,153.492308 96.6021695,155.941176 L96.6021695,168.125792 Z M105.977735,164.81086 C105.977735,169.171041 108.306698,172.963801 113.054198,172.963801 C117.891273,172.963801 120.429245,169.260633 120.429245,164.721267 C120.429245,162.690498 119.861933,160.480543 118.54816,158.867873 C117.174669,157.165611 115.233867,156.59819 113.084056,156.59819 C108.276839,156.59819 105.977735,160.420814 105.977735,164.81086 L105.977735,164.81086 Z M108.45599,164.721267 C108.45599,163.40724 108.784433,161.824434 109.471179,160.659729 C110.337075,159.19638 111.591131,158.628959 113.263207,158.628959 C114.696414,158.628959 116.069905,159.106787 116.876084,160.361086 C117.652405,161.555656 117.95099,163.228054 117.95099,164.60181 C117.95099,167.767421 116.75665,170.933032 113.084056,170.933032 C109.590613,170.933032 108.45599,167.677828 108.45599,164.721267 L108.45599,164.721267 Z M127.147405,166.811765 C127.147405,169.260633 127.296697,169.977376 127.744575,170.843439 C128.43132,172.127602 129.864527,172.635294 131.267876,172.635294 C135.477924,172.635294 136.045235,169.648869 136.045235,166.184615 C136.045235,165.467873 135.776509,164.751131 134.940471,164.751131 C134.074575,164.751131 133.746131,165.258824 133.746131,166.632579 L133.746131,167.588235 C133.746131,169.021719 133.417688,170.544796 131.626178,170.544796 C130.043678,170.544796 129.446509,169.678733 129.446509,166.99095 L129.446509,159.763801 C129.446509,159.226244 129.536084,159.166516 130.222829,159.166516 L132.850376,159.166516 C134.194009,159.166516 134.462735,158.658824 134.462735,158.091403 C134.462735,157.374661 134.16415,156.986425 132.939952,156.986425 L129.954103,156.986425 C129.536084,156.986425 129.446509,156.956561 129.446509,156.508597 L129.446509,153.552036 C129.446509,152.775566 129.297216,152.058824 128.311886,152.058824 C127.296697,152.058824 127.147405,152.745701 127.147405,153.5819 L127.147405,156.030769 C127.147405,156.866968 127.087688,156.986425 126.550235,156.986425 L125.505188,156.986425 C124.878159,156.986425 124.370565,157.553846 124.370565,158.061538 C124.370565,158.957466 124.908018,159.166516 126.102358,159.166516 C127.027971,159.166516 127.147405,159.315837 127.147405,160.211765 L127.147405,166.811765 Z" id="blot" fill="#FFFFFB"></path>
            </g>
        </g>
    </g>
</svg>